<?xml version="1.0" standalone="no"?>
<!DOCTYPE svg PUBLIC "-//W3C//DTD SVG 20010904//EN"
 "http://www.w3.org/TR/2001/REC-SVG-20010904/DTD/svg10.dtd">
<svg version="1.0" xmlns="http://www.w3.org/2000/svg"
 width="700.000000pt" height="700.000000pt" viewBox="0 0 700.000000 700.000000"
 preserveAspectRatio="xMidYMid meet">
<metadata>
Created by potrace 1.11, written by Peter Selinger 2001-2013
</metadata>
<g transform="translate(0.000000,700.000000) scale(0.100000,-0.100000)"
fill="#000000" stroke="none">
<path d="M609 6995 c-3 -2 -23 -6 -45 -9 -63 -8 -161 -47 -239 -96 -137 -85
-243 -225 -302 -400 -17 -53 -18 -163 -20 -2960 -2 -3245 -8 -2971 72 -3135
74 -150 183 -257 335 -329 150 -70 -95 -65 3110 -62 3243 4 2931 -4 3096 77
137 67 253 187 319 333 70 152 65 -103 62 3116 l-2 2905 -21 61 c-75 216 -215
370 -412 453 -126 53 23 50 -3073 51 -1582 0 -2878 -2 -2880 -5z"/>
</g>
</svg>
