<svg id="Layer_1" data-name="Layer 1" xmlns="http://www.w3.org/2000/svg" xmlns:xlink="http://www.w3.org/1999/xlink" viewBox="0 0 225 225"><defs><style>.cls-1{fill:none;}.cls-2{clip-path:url(#clip-path);}.cls-3{fill:#020202;}.cls-4{fill:#f1692c;}.cls-5{fill:#f0682c;}.cls-6{fill:#f0682d;}.cls-7{fill:#ef682d;}.cls-8{fill:#f1692d;}.cls-9{fill:#ed682d;}.cls-10{fill:#626465;}.cls-11{fill:#050606;}.cls-12{fill:#fbf9f8;}</style><clipPath id="clip-path"><rect class="cls-1" x="33.71" y="5.33" width="158.28" height="252.06"/></clipPath></defs><g class="cls-2"><path class="cls-3" d="M33.71,113a7,7,0,0,1,4.15-4.11Q64,96.75,90.17,84.46c.84-.38,1.92-.62,2.34-1.25s0-1.74,0-2.62V15.16a5.07,5.07,0,0,1,1-3.14,4.94,4.94,0,0,1,2.82-1.78,4.8,4.8,0,0,1,5.62,3.18L117.38,52l.45,1a2.23,2.23,0,0,0,.24-.49L130.21,9.48a5.23,5.23,0,0,1,4.36-4.08,4.7,4.7,0,0,1,3,.38,5,5,0,0,1,2.2,2.06,11.33,11.33,0,0,1,.87,3.49c1.4,8.65,2.72,17.43,4.05,26,1.18,7.81,2.4,15.59,3.48,23.4.81,5.3,1.61,10.47,2.45,15.87a1.1,1.1,0,0,0,.24.42,1,1,0,0,0,.38.31,73.68,73.68,0,0,1,36.63,41.09,70,70,0,0,1,3.83,29.82,72.42,72.42,0,0,1-15.59,38.89,73.74,73.74,0,0,1-103.64,11.5q-1.81-1.46-3.54-3A71.43,71.43,0,0,1,46.4,155.83a67.72,67.72,0,0,1-.94-20,7.37,7.37,0,0,1,0-.94,3.91,3.91,0,0,1,5.93-3.49h.24a4.08,4.08,0,0,1,1,1.47,3.67,3.67,0,0,1,.21,1.74l-.21,1.81a59.68,59.68,0,0,0,.87,17.44,63.75,63.75,0,0,0,11.86,27.07c1.43,1.88,3,3.48,4.39,5.4,1.92-2.19,3.49-4.39,5.55-6.34A39.73,39.73,0,0,1,94,169.85a120.07,120.07,0,0,1,22.81-3c5.62-.38,11.27-.7,16.85-1.46a38.5,38.5,0,0,0,19.43-8.37,42.44,42.44,0,0,0,3.48-3.49l.84-.73a37.93,37.93,0,0,0,7.54-14,45.16,45.16,0,0,0,1-21.27A63.84,63.84,0,0,0,145.91,83a7.24,7.24,0,0,1-2.34-4.35c-1.29-9-2.75-18-4.12-27l-3.83-25.49-.84-5.41h0l-2.13,7.89a1.63,1.63,0,0,0-.17.38c-3.07,10.85-6.07,21.66-9.17,32.47a43.15,43.15,0,0,1-3.84,11.09V73a2.11,2.11,0,0,0-.35.38,23.22,23.22,0,0,1-6,6.53,102.52,102.52,0,0,1-17,9.9c-15.59,7.46-31.39,14.68-46.95,22l-7,3.25a12.87,12.87,0,0,0,4.88,3.1c.91.28,1.74.66,2.65.87a50.19,50.19,0,0,0,15.8.67,104.63,104.63,0,0,0,15.31-2.9,57.45,57.45,0,0,1,18.56-1.71,26.68,26.68,0,0,1,11.68,3.8A18,18,0,0,1,119.5,138a44.15,44.15,0,0,1-1.29,4.47l-.45.59a16.11,16.11,0,0,1-21.69,7,5,5,0,0,1-1.57-1,5,5,0,0,1-1-1.54,3.73,3.73,0,0,1,1.15-3.8,3.79,3.79,0,0,1,4.47-.28,8.82,8.82,0,0,0,12-3.28,9.55,9.55,0,0,0,.69-1.53,11.3,11.3,0,0,0-6.55-14.58c-.23-.09-.47-.17-.71-.24a25.74,25.74,0,0,0-11.44-1.47,60.64,60.64,0,0,0-12.27,2,91.39,91.39,0,0,1-14.69,2.37,62.87,62.87,0,0,1-14.51,0,25.11,25.11,0,0,1-14-6,15.1,15.1,0,0,1-4-5.48Zm66-85.48h0V39.44h0c0,.33,0,.67,0,1v38a3.22,3.22,0,0,0,0,.76H100c2.79-1.71,5.65-3.48,8.27-5.16a30.32,30.32,0,0,0,3.91-3.94,13.11,13.11,0,0,0,2.4-4.95,2.16,2.16,0,0,0,0-1.33L101,30.3C100.6,29.36,100.15,28.42,99.69,27.51ZM74.83,191.12a5.55,5.55,0,0,0,.48.49,66.09,66.09,0,0,0,26.86,13.95l3.77.84a6.76,6.76,0,0,1-.56-.87q-4.92-7-9.8-14l-6.35-8.68-2.93-4.22a31.86,31.86,0,0,0-12.38,11.75.81.81,0,0,0,.24.28Zm75.3-20.26.28.45,10.46,14.79,2.69,4a65.31,65.31,0,0,0,9.73-11.2l-7-9.8c-2.13-3-4.25-6-6.42-8.93l-.66-.91a43.44,43.44,0,0,1-11.75,8Zm-2.44,1.53-2.65-4c-2.59.69-5,1.5-7.4,2s-4.92.87-7.46,1.32l3.9,5.62a1.39,1.39,0,0,0,.25.38l13.95,20,1.6,2.27a70,70,0,0,0,11.86-8c-.13-.22-.27-.45-.42-.66l-7.5-10.46C151.63,177.87,149.67,175.11,147.69,172.39Zm-34.53,7.22.35.59,8,11.41,9.87,13.95a.9.9,0,0,0,.46.42.94.94,0,0,0,.62,0c1.22-.35,2.52-.59,3.74-.94a66.2,66.2,0,0,0,10.81-4l-.46-.7-11.26-16.22c-1.47-2.13-3-4.22-4.47-6.35s-2.61-3.83-4-5.72a.6.6,0,0,0-.31-.21.86.86,0,0,0-.39,0l-15.31,1-2.51.21C110.16,175.32,111.62,177.45,113.16,179.61Zm-20.93,2.55a2.61,2.61,0,0,0,.17.28c5.69,8.05,11.34,16.11,17,24.13a1.19,1.19,0,0,0,.87.49,65.13,65.13,0,0,0,15,0,27.39,27.39,0,0,0,3.49-.45l-.46-.67-12.87-18.2c-1.88-2.72-3.83-5.37-5.75-8.09-1.4-2-2.79-4.05-4.22-6a.85.85,0,0,0-.42-.24.69.69,0,0,0-.45,0c-1.43.17-2.86.38-4.26.63a50.48,50.48,0,0,0-11.47,3.48c1.15,1.57,2.26,3.14,3.48,4.68Zm82.59-5.79a65.75,65.75,0,0,0,6.45-13.71,2.26,2.26,0,0,0,0-.52,1.13,1.13,0,0,0-.21-.49l-9.76-14-2.13-3c-1.22,2.24-2.27,4.47-3.49,6.53s-2.86,4-4.32,6.06Zm7.6-17.44a65.28,65.28,0,0,0,2.17-18.56,3,3,0,0,0-.53-1.29c-2.75-4-5.54-8-8.37-11.89l-3.48-5v.52A49.72,49.72,0,0,1,170.32,141a1.21,1.21,0,0,0,.25,1c2.75,4,5.58,8,8.4,12l3.49,5ZM160.8,92.21l-.21.21.25.35a67.2,67.2,0,0,1,9.76,20.57,10.53,10.53,0,0,0,1.19,3.21c3.48,5,7,9.94,10.46,14.9l1.64,2.33a63.22,63.22,0,0,0-13.71-32.29A57.86,57.86,0,0,0,160.87,92Z"/><path class="cls-4" d="M119.3,72.85a1.69,1.69,0,0,1,0-.45,43.64,43.64,0,0,0,3.83-11.09c3.11-10.82,6.11-21.63,9.18-32.44a1.94,1.94,0,0,1,.17-.42,2.94,2.94,0,0,1,0,.42c.8,5.27,1.64,10.46,2.44,15.8L140.78,83a9.57,9.57,0,0,0,2.79,5.83,48.87,48.87,0,0,1,5.06,5.41A60.57,60.57,0,0,1,161.71,134a42.31,42.31,0,0,1-4.12,17.44l-1,2.09a47.74,47.74,0,0,1-3.48,3.49,38.37,38.37,0,0,1-19.4,8.65c-5.54.77-11.19,1.05-16.84,1.43a125.22,125.22,0,0,0-22.81,3,40.55,40.55,0,0,0-18.8,10c-2,1.95-3.49,4.15-5.51,6.35-1.43-1.75-3-3.49-4.4-5.41a63.94,63.94,0,0,1-11.89-27.06,61.1,61.1,0,0,1-.8-17.44,6.61,6.61,0,0,1,.17-1.82,3.69,3.69,0,0,0-.21-1.74,4.1,4.1,0,0,0-1-1.43c2.27,0,4.54.21,7,0a88.21,88.21,0,0,0,19.08-3.14,73,73,0,0,1,15.8-2.68,22.7,22.7,0,0,1,12.2,2.37,11.15,11.15,0,0,1,6.18,9.9,3.75,3.75,0,0,0,0,.67,8.87,8.87,0,0,1-11.25,5.51,8.59,8.59,0,0,1-1.48-.67,3.79,3.79,0,0,0-4.47.28,3.5,3.5,0,0,0-1.15,3.77,3.8,3.8,0,0,0-.8,1.39,3.47,3.47,0,0,0,0,1.57,3.43,3.43,0,0,0,.59,1.47A3.52,3.52,0,0,0,94.53,153a16.08,16.08,0,0,0,22-5.66A16.4,16.4,0,0,0,118,144a7.68,7.68,0,0,1,.35-1.53c.42-1.47,1-2.93,1.25-4.43a17.81,17.81,0,0,0-1.25-10.75,18.21,18.21,0,0,0-7.22-8.23,27.07,27.07,0,0,0-11.72-3.8A56.39,56.39,0,0,0,80.93,117a101.06,101.06,0,0,1-15.45,2.58,49.88,49.88,0,0,1-15.8-.63c-.91-.21-1.78-.59-2.65-.87l.66-.38,41-19.29a174.47,174.47,0,0,0,19.67-10.67,24.15,24.15,0,0,0,10.47-13.08A9,9,0,0,0,119.3,72.85Zm-16.12,30.24v.21l-1.43,2.06h0a1,1,0,0,0,.42,0,7.88,7.88,0,0,1,6.1-.32,11,11,0,0,0,4.12.21,9.66,9.66,0,0,0,6.07-4.08v-.45l.84-.87c1.11-1.22,1.08-1.43-.28-2.45l-.28-.2a9.11,9.11,0,0,0-8.16-.6,15.79,15.79,0,0,0-7.4,6v.49Z"/><path class="cls-5" d="M109.77,179.79c1.92,2.68,3.88,5.37,5.76,8.05l12.87,18.24.45.67c-1.22,0-2.33.35-3.49.45a65.13,65.13,0,0,1-15,0,1.5,1.5,0,0,1-.87-.49q-8.53-12.08-17-24.13l-.17-.32c.27-.08.55-.15.83-.21A111.51,111.51,0,0,1,109.77,179.79Z"/><path class="cls-6" d="M131.08,177.87l4.47,6.31,11,16.36.46.66a62.77,62.77,0,0,1-10.78,4.05c-1.22.31-2.51.56-3.73.9a.77.77,0,0,1-.63,0,1,1,0,0,1-.45-.41l-9.87-14-7.95-11.54-.35-.63a3.64,3.64,0,0,0,.66,0Z"/><path class="cls-5" d="M147.69,172.39l5.86,8.23L161,191.09l.42.66a68.67,68.67,0,0,1-11.89,8L148,197.5l-13.95-20-.21-.38h.94A45.47,45.47,0,0,0,147.69,172.39Z"/><path class="cls-6" d="M159.82,160.08l6.42,9.07,7,9.83a64.68,64.68,0,0,1-9.66,11.1l-2.72-3.91-10.47-14.82-.28-.46a42.23,42.23,0,0,0,3.49-3A35.15,35.15,0,0,0,159.82,160.08Z"/><path class="cls-7" d="M174.89,176.3l-13.6-19c1.46-2.06,3-4,4.32-6.07s2.34-4.29,3.49-6.53l2.16,3.07,9.77,14a1.33,1.33,0,0,1,.21.49,2.35,2.35,0,0,1,0,.53A64.52,64.52,0,0,1,174.89,176.3Z"/><path class="cls-7" d="M89.23,182.89l6.21,8.72,9.8,13.95a9.9,9.9,0,0,0,.56.87L102,205.6a66.6,66.6,0,0,1-26.86-14s-.31-.34-.48-.48l.55-.6A33.68,33.68,0,0,1,89.23,182.89Z"/><path class="cls-7" d="M182.49,158.69l-3.48-5c-2.79-4-5.62-7.95-8.41-12a1.46,1.46,0,0,1-.24-1,49.48,49.48,0,0,0,1.88-18.35v-.52l3.49,5,8.37,11.89a3,3,0,0,1,.52,1.33A65.33,65.33,0,0,1,182.49,158.69Z"/><path class="cls-8" d="M112.15,70.2a36.09,36.09,0,0,1-3.91,3.91c-2.65,1.88-5.51,3.48-8.27,5.19V39.51h0a5.52,5.52,0,0,1,.42.8l5.86,14.61Z"/><path class="cls-9" d="M160.87,92a57.43,57.43,0,0,1,9.31,9.39,63.21,63.21,0,0,1,13.71,32.26l-1.64-2.3c-3.49-5-7-9.87-10.46-14.9a10.53,10.53,0,0,1-1.19-3.21,67.28,67.28,0,0,0-9.7-20.68l-.24-.35Z"/><path class="cls-10" d="M99.69,39.54V78.22a6.49,6.49,0,0,0,0,1.08h-.31V40.55A5.34,5.34,0,0,1,99.69,39.54Z"/><path class="cls-11" d="M103.18,103.12v-.52a15.5,15.5,0,0,1,7.26-6.07,9.11,9.11,0,0,1,8.16.6l.28.2c1.36,1,1.39,1.23.28,2.45l-.84.87a8.16,8.16,0,0,1-5.62,2.47,23,23,0,0,1-4.36-.69,5.2,5.2,0,0,0-3.48.21A9,9,0,0,1,103.18,103.12Z"/><path class="cls-12" d="M103.18,103.12a8.33,8.33,0,0,0,1.54-.48,5.2,5.2,0,0,1,3.48-.21,23,23,0,0,0,4.36.69,8.2,8.2,0,0,0,5.62-2.47v.45a9.66,9.66,0,0,1-6.07,4.08A11.36,11.36,0,0,1,108,105a7.91,7.91,0,0,0-6.11.32,1,1,0,0,1-.42,0l1.43-2.06V103Z"/></g></svg>