<svg xmlns="http://www.w3.org/2000/svg" viewBox="0 0 465.12 82.96"><defs><style>.cls-1,.cls-3{fill:#fff;}.cls-1{opacity:0.43;}.cls-2{fill:none;stroke:#fff;stroke-miterlimit:10;stroke-width:2px;}</style></defs><title>Asset 1</title><g id="Layer_2" data-name="Layer 2"><g id="Layer_1-2" data-name="Layer 1"><path class="cls-1" d="M452.24,1.37H231.73V24.26a19.75,19.75,0,0,0-12.27-5.36C208,18.17,198.2,27.42,198.2,39.59S208,61.1,219.46,60.48a19.52,19.52,0,0,0,12.27-5.24V82H452.24a12.25,12.25,0,0,0,12.21-12.21V13.58A12.25,12.25,0,0,0,452.24,1.37Z"/><path class="cls-2" d="M231.73,1.37H337.94c65.33-.5,113.17-.49,117.82,0a10.23,10.23,0,0,1,5.91,2.45,8.33,8.33,0,0,1,2.45,5.9V73.6A8.36,8.36,0,0,1,455.76,82h-224"/><path class="cls-2" d="M231.73,82H9.35A8.36,8.36,0,0,1,1,73.6V9.72A8.35,8.35,0,0,1,9.35,1.37H231.73"/><path class="cls-3" d="M63.83,16.52V62.6H58.55L32.39,26h-.12V62.6H26.39V16.52h6.18L57.83,52H58V16.52Z"/><path class="cls-3" d="M101.21,62.6H95.63l-.06-4.74h-.12A12.21,12.21,0,0,1,85,63.26c-7,0-11.34-4.5-11.34-11.28V30.38h5.7V50.84c0,4.2,2.34,7.5,7.32,7.5,5.4,0,8.82-3.72,8.82-8.76V30.38h5.7Z"/><path class="cls-3" d="M110.69,30.38h5.52l.12,4.86h.12c2.16-4,5.16-5.52,8.28-5.52a8.22,8.22,0,0,1,2.7.42v5.58a10.37,10.37,0,0,0-3-.42c-5.34,0-8,3.78-8,7.74V62.6h-5.7Z"/><path class="cls-3" d="M130,58.4l3.48-3.9a14.37,14.37,0,0,0,10.2,4c5.1,0,7.56-1.86,7.56-4.62,0-3.06-3.24-3.78-8.64-4.92-6.06-1.32-11.46-3.18-11.46-9.42,0-5.52,4.32-9.78,12.72-9.78a17.68,17.68,0,0,1,12.54,4.62L153,38.24a13.31,13.31,0,0,0-9.3-3.72c-4.5,0-6.78,1.92-6.78,4.38,0,3,2.88,3.66,8.46,4.86,5.94,1.32,11.64,3,11.64,9.42,0,5.88-4.68,10.08-13.5,10.08C137.81,63.26,133.37,61.58,130,58.4Z"/><path class="cls-3" d="M189.89,58a15.41,15.41,0,0,1-12.18,5.22c-10.14,0-15.9-6.66-15.9-16.8,0-9.72,5.76-16.74,15.06-16.74s14.22,6.9,14.22,15.72a28.82,28.82,0,0,1-.18,3.3H167.63c.6,6.12,4.14,9.66,10.14,9.66a9.57,9.57,0,0,0,8.16-3.9Zm-4.44-14c-.36-5.28-3-9.48-8.7-9.48s-8.64,4.08-9.18,9.48Z"/><path class="cls-3" d="M196.73,39.56c0-13.44,7.74-23.7,21-23.7,8,0,14,3.78,17.52,9.9l-5,2.94a13.45,13.45,0,0,0-12.48-7.62c-10.08,0-14.88,8.58-14.88,18.42S207.59,58,218.09,58a13.62,13.62,0,0,0,12.54-7.5l4.86,2.76c-3.42,6.06-9.48,10-17.58,10C204.47,63.26,196.73,53,196.73,39.56Z"/><path class="cls-3" d="M239.33,46.52c0-9.36,5.76-16.8,15.84-16.8S271,37.28,271,46.52s-5.64,16.74-15.78,16.74S239.33,55.82,239.33,46.52Zm5.76,0c0,6.36,3.36,11.88,10,11.88s10.08-5.52,10.08-11.88-3.42-11.94-10.08-11.94S245.09,40.1,245.09,46.52Z"/><path class="cls-3" d="M278.33,30.38h5.52l.12,4.74h.12a11.85,11.85,0,0,1,10.44-5.4c7,0,11.34,4.5,11.34,11.28V62.6h-5.7V42.14c0-4.2-2.46-7.5-7.32-7.5-5.4,0-8.82,3.72-8.82,8.76V62.6h-5.7Z"/><path class="cls-3" d="M315.23,30.38h5.52l.12,4.74H321a11.85,11.85,0,0,1,10.44-5.4c7,0,11.34,4.5,11.34,11.28V62.6h-5.7V42.14c0-4.2-2.46-7.5-7.32-7.5-5.4,0-8.82,3.72-8.82,8.76V62.6h-5.7Z"/><path class="cls-3" d="M378.11,58a15.41,15.41,0,0,1-12.18,5.22c-10.14,0-15.9-6.66-15.9-16.8,0-9.72,5.76-16.74,15.06-16.74s14.22,6.9,14.22,15.72a28.82,28.82,0,0,1-.18,3.3H355.85c.6,6.12,4.14,9.66,10.14,9.66a9.57,9.57,0,0,0,8.16-3.9Zm-4.44-14c-.36-5.28-3-9.48-8.7-9.48s-8.64,4.08-9.18,9.48Z"/><path class="cls-3" d="M384.41,46.64c0-9.54,5.7-16.92,15.6-16.92a13.84,13.84,0,0,1,12.9,7.56L408.17,40c-1.62-3.12-4.2-5.4-8.28-5.4-6.3,0-9.72,5.28-9.72,11.94,0,6.48,3.3,11.88,10.08,11.88a8.84,8.84,0,0,0,8.4-5.22l4.5,2.58c-2.28,4.5-6.84,7.5-13.08,7.5C390.17,63.26,384.41,56.12,384.41,46.64Z"/><path class="cls-3" d="M415.31,30.38h6.42V20.18h5.7v10.2h7.74v4.74h-7.74V52.76c0,3.84,1,5.58,5.22,5.58a13.25,13.25,0,0,0,2.52-.24v4.62a18.84,18.84,0,0,1-4.5.54c-6.12,0-8.94-3.36-8.94-9.06V35.12h-6.42Z"/></g></g></svg>