<svg id="Layer_1" data-name="Layer 1" xmlns="http://www.w3.org/2000/svg" viewBox="0 0 50 50"><defs><style>.cls-1{fill:#fff64d;}.cls-2{fill:#e22735;}.cls-3{fill:#ff773b;}.cls-4{fill:#53bc39;}.cls-5{fill:#31b3f4;}</style></defs><polygon class="cls-1" points="16.67 50 33.33 50 25 0 16.67 50"/><polygon class="cls-2" points="0 0 0 50 25 0 0 0"/><polygon class="cls-3" points="0 50 16.67 50 25 0 0 50"/><polygon class="cls-4" points="33.33 50 50 50 25 0 33.33 50"/><polygon class="cls-5" points="25 0 50 50 50 0 25 0"/><path d="M50,11.46V0H35.17C42.76,2,48.31,6.23,50,11.46Z"/><path d="M37.64,35c-.59-1.08-4.91-3.93-12.46-4h-.25C16,31,7.67,28.17,3.22,23.55A13.21,13.21,0,0,1,0,18.23V29.65H12.35v5.08c.2,1.65,4.07,3.84,10.25,4.31V35h4.86v4C33.22,38.59,37.06,36.59,37.64,35Z"/><path d="M50,31.61V20.31H38.1v0h-.38v-5c-.13-1.65-4-3.89-10.25-4.37V15H22.6V11c-5.77.45-9.61,2.45-10.19,4,.59,1.08,4.91,3.93,12.46,4h.23c9,0,17.28,2.86,21.73,7.48A13.3,13.3,0,0,1,50,31.61Z"/><path d="M46.59,44A25,25,0,0,1,35.2,50H50V38.61A13.4,13.4,0,0,1,46.59,44Z"/><path d="M3.46,6A25.06,25.06,0,0,1,14.87,0H0V11.56A13.38,13.38,0,0,1,3.46,6Z"/><path d="M0,38.39V50H14.88C7.21,48,1.63,43.68,0,38.39Z"/></svg>