<svg id="Layer_1" data-name="Layer 1" xmlns="http://www.w3.org/2000/svg" viewBox="0 0 400 400"><defs><style>.cls-1{fill:#fff;}</style></defs><path class="cls-1" d="M400,91.68V0H281.37C342.12,16,386.51,49.86,400,91.68Z"/><path class="cls-1" d="M301.11,280c-4.71-8.64-39.25-31.48-99.7-31.79-.42,0-1.18,0-2,0-71.57,0-138-22.93-173.65-59.83C13.3,175.49,4.63,161.07,0,145.81v91.36H98.77V277.8c1.6,13.21,32.6,30.77,82,34.54V280h38.88v32.34C265.77,308.7,296.46,292.72,301.11,280Z"/><path class="cls-1" d="M400,252.87v-90.4H304.8v-.14h-3.05V123.22l0-.63c-1-13.25-32.15-31.16-82.06-35V120H180.76V87.66C134.64,91.3,103.94,107.28,99.3,120c4.71,8.64,39.24,31.48,99.69,31.79l1.82,0c71.75,0,138.24,22.93,173.83,59.84C386.75,224.13,395.28,238.1,400,252.87Z"/><path class="cls-1" d="M372.73,352.1C350.86,373.85,319,390.29,281.59,400H400V308.85C395,324.4,385.86,339.05,372.73,352.1Z"/><path class="cls-1" d="M27.68,47.9C49.52,26.18,81.61,9.72,119,0H0V92.5C4.85,76.46,14.17,61.33,27.68,47.9Z"/><path class="cls-1" d="M0,307.09V400H119C57.69,383.87,13,349.47,0,307.09Z"/></svg>